<?xml version="1.0" encoding="UTF-8" standalone="no"?>
<svg width="109px" height="59px" viewBox="0 0 109 59" version="1.1" xmlns="http://www.w3.org/2000/svg" xmlns:xlink="http://www.w3.org/1999/xlink">
    <!-- Generator: sketchtool 40.1 (33804) - http://www.bohemiancoding.com/sketch -->
    <title>E104D418-A545-46A0-AA19-A006F7C1BF7C</title>
    <desc>Created with sketchtool.</desc>
    <defs></defs>
    <g id="Wires" stroke="none" stroke-width="1" fill="none" fill-rule="evenodd">
        <g id="MacDashboard-1920x1200" transform="translate(-906.000000, -688.000000)" fill="#FFFFFF">
            <g id="Group" transform="translate(906.000000, 688.000000)">
                <path d="M3.85727795,12.0405797 C1.91345201,14.9254339 0.577171713,18.2079207 0.165725296,21.3664618 C-0.42963658,25.9378834 0.589362394,30.8706116 3.05606279,35.3564157 C4.60182413,38.1674438 5.93937076,39.9454256 8.53288697,42.6361911 C10.0737267,44.2348297 14.1534938,47.1505468 16.3440438,48.2179538 C21.8538254,50.9041462 25.5143433,51.6527896 29.494901,50.9074834 C32.0500718,50.4291525 33.1691711,49.8399528 34.8755673,48.9868676 C36.3408132,48.2544157 37.7066086,46.7841972 38.9844883,46.2724945 C40.8424381,45.5284242 42.152721,45.561549 44.350534,46.4079597 C47.5092935,47.6246752 51.8305076,50.5966301 57.2275336,55.2646202 C59.249474,57.0134324 61.1113805,58.5325964 61.3653602,58.6406225 C61.6193738,58.7481543 62.0332298,58.7530983 62.2851349,58.6529825 C62.8589012,58.4190083 64.1260819,57.0387704 65.2256315,55.610823 L65.2259064,55.6109466 C66.1645805,54.0680515 67.002231,52.3807919 67.0212042,51.750557 C67.029682,51.4738173 66.8840883,51.0784218 66.6978521,50.8717631 C66.5115614,50.6651044 64.4759525,49.3991962 62.1741583,48.058263 C56.0300742,44.4788155 51.815634,41.3513722 49.6150088,38.7381037 C48.0839294,36.9200756 47.6053406,35.674685 47.6549671,33.6385034 C47.6891205,32.2378716 48.5756938,30.4251583 48.7489723,28.7695403 C48.9508076,26.8413849 49.1105737,25.5665404 48.6771897,22.952555 C48.0019614,18.8803155 46.0606338,15.6257993 41.7028538,11.2605914 C39.9706658,9.52501675 35.8907606,6.60971995 33.8916837,5.67872989 C30.5270765,4.11189351 28.4325471,3.43721216 25.3156363,2.91633829 C20.3414395,2.08496959 15.4512102,2.79483978 11.4455862,4.92933252 C8.67807376,6.4041242 6.11252622,8.80827442 4.1211827,11.6590769 L4.12098419,11.6593488 C4.07662967,11.7228791 4.03339058,11.7874846 3.98957597,11.8514969 L3.98930226,11.8512992 L3.85762699,12.0432124 L3.85727795,12.0432742 L3.85727795,12.0405797 Z" id="Shape"></path>
                <path d="M105.142706,12.0405797 C107.086532,14.9254339 108.422811,18.2079207 108.834258,21.3664618 C109.42962,25.9378834 108.410621,30.8706116 105.943921,35.3564157 C104.398159,38.1674438 103.060613,39.9454256 100.467097,42.6361911 C98.9262575,44.2348297 94.8464893,47.1505468 92.6559393,48.2179538 C87.1461576,50.9041462 83.4856397,51.6527896 79.505082,50.9074834 C76.9499113,50.4291525 75.8308131,49.8399528 74.1244157,48.9868676 C72.6591711,48.2544157 71.2933757,46.7841972 70.015496,46.2724945 C68.157545,45.5284242 66.847262,45.561549 64.6494502,46.4079597 C61.4906896,47.6246752 57.1694754,50.5966301 51.7724494,55.2646202 C49.7505091,57.0134324 47.8886038,58.5325964 47.6346241,58.6406225 C47.3806093,58.7481543 46.9667545,58.7530983 46.7148482,58.6529825 C46.1410819,58.4190083 44.8739012,57.0387704 43.7743516,55.610823 L43.7740778,55.6109466 C42.8354038,54.0680515 41.9977533,52.3807919 41.9787788,51.750557 C41.970301,51.4738173 42.115896,51.0784218 42.3021309,50.8717631 C42.4884216,50.6651044 44.5240305,49.3991962 46.8258247,48.058263 C52.9699089,44.4788155 57.1843491,41.3513722 59.3849755,38.7381037 C60.9160537,36.9200756 61.3946424,35.674685 61.3450171,33.6385034 C61.3108638,32.2378716 60.4242893,30.4251583 60.2510108,28.7695403 C60.0491755,26.8413849 59.8894093,25.5665404 60.3227933,22.952555 C60.9980217,18.8803155 62.9393492,15.6257993 67.2971293,11.2605914 C69.0293173,9.52501675 73.1092224,6.60971995 75.1083006,5.67872989 C78.4729065,4.11189351 80.567436,3.43721216 83.6843467,2.91633829 C88.6585435,2.08496959 93.5487728,2.79483978 97.5543969,4.92933252 C100.321909,6.4041242 102.887457,8.80827442 104.878801,11.6590769 L104.878999,11.6593488 C104.92335,11.7228791 104.966587,11.7874846 105.010407,11.8514969 L105.010681,11.8512992 L105.142357,12.0432124 L105.142706,12.0432742 L105.142706,12.0405797 Z" id="Shape"></path>
                <ellipse id="Oval" cx="54.4999952" cy="4.87543069" rx="4.70188504" ry="4.79849948"></ellipse>
            </g>
        </g>
    </g>
</svg>